<?xml version="1.0" encoding="UTF-8"?>
<svg id="Layer_2" data-name="Layer 2" xmlns="http://www.w3.org/2000/svg" viewBox="0 0 159.07 46.81">
  <defs>
    <style>
      .cls-1 {
        fill: none;
      }

      .cls-2 {
        fill: #f5f5f5;
      }
    </style>
  </defs>
  <g id="Layer_3" data-name="Layer 3">
    <g>
      <g>
        <path class="cls-2" d="M29.28,4.7v37.41h-7.08v-15.92H7.08v15.92H0V4.7h7.08v15.38h15.12V4.7h7.08Z"/>
        <path class="cls-2" d="M93.06,21.9c-.89,1.75-2.29,3.16-4.19,4.23-1.9,1.07-4.3,1.61-7.21,1.61h-5.92v14.36h-7.08V4.7h12.99c2.73,0,5.06.5,6.98,1.5,1.92,1,3.36,2.38,4.32,4.13.96,1.75,1.44,3.73,1.44,5.95,0,1.95-.45,3.88-1.34,5.62h0ZM85.7,20.27c.94-.95,1.41-2.28,1.41-3.99,0-3.64-1.92-5.47-5.76-5.47h-5.61v10.88h5.61c1.95,0,3.4-.47,4.35-1.41h0s0,0,0,0Z"/>
        <path class="cls-2" d="M106.49,10.78v9.38h11.88v5.95h-11.88v9.91h13.4v6.11h-20.48V4.67h20.48v6.11h-13.4Z"/>
        <path class="cls-2" d="M126.94,13.55c1.48-2.82,3.7-5.17,6.42-6.81,2.71-1.62,5.76-2.44,9.13-2.45,3.94,0,7.4,1.07,10.36,3.22,2.96,2.14,5.04,5.11,6.22,8.9h-8.14c-.81-1.79-1.95-3.13-3.41-4.02s-3.16-1.34-5.08-1.34c-1.94-.03-3.84.5-5.49,1.53-1.63,1.05-2.93,2.55-3.74,4.31-.89,1.86-1.34,4.04-1.34,6.54s.45,4.64,1.34,6.51,2.14,3.32,3.74,4.34c1.64,1.03,3.55,1.56,5.49,1.53,1.92,0,3.61-.46,5.08-1.37,1.47-.91,2.6-2.26,3.41-4.05h8.14c-1.18,3.82-3.25,6.8-6.19,8.92s-6.41,3.19-10.39,3.19c-3.37,0-6.41-.81-9.13-2.44-2.72-1.63-4.94-3.98-6.42-6.78-1.56-2.89-2.35-6.18-2.35-9.85,0-3.68.78-6.97,2.35-9.89h0Z"/>
        <path class="cls-2" d="M71.7,45.16h0c-3.16.73-6.28-1.42-6.97-4.8-.03-.13-.05-.26-.07-.39-1.1-6.1-5.36-11-10.88-12.67,1.01-.26,1.93-.63,2.76-1.09,1.9-1.07,3.3-2.48,4.19-4.23.88-1.72,1.34-3.63,1.34-5.56v-.06c0-2.22-.48-4.2-1.44-5.95-.96-1.75-2.4-3.13-4.32-4.13-1.92-1-4.25-1.5-6.98-1.5h-12.99v37.4h7.08v-14.1c3.5,1.69,6.28,4.71,7.81,8.48.05.12.09.23.13.35,2.24,5.56,7.26,9.52,13.19,9.88.29.02.59.03.89.03,2.64,0,5.24-.73,7.54-2.12-.41.21-.84.37-1.29.47ZM53.39,20.33c-.94.95-2.39,1.42-4.35,1.41h-5.61v-10.88h5.61c3.84,0,5.76,1.82,5.76,5.47,0,1.72-.47,3.05-1.41,3.99h0Z"/>
      </g>
      <g>
        <rect class="cls-1" y="4.5" width="159.07" height="37.81"/>
        <rect class="cls-1" y="42.31" width="159.07" height="4.5"/>
        <rect class="cls-1" width="159.07" height="4.5"/>
      </g>
    </g>
  </g>
</svg>