<?xml version="1.0" encoding="UTF-8"?>
<svg id="Layer_2" data-name="Layer 2" xmlns="http://www.w3.org/2000/svg" xmlns:xlink="http://www.w3.org/1999/xlink" viewBox="0 0 58.22 58.22">
  <defs>
    <style>
      .cls-1 {
        fill: #01a0e4;
      }

      .cls-2 {
        fill: #fff;
      }

      .cls-3 {
        fill: #45caf5;
      }

      .cls-4 {
        fill: url(#linear-gradient);
      }

      .cls-5 {
        opacity: .8;
      }
    </style>
    <linearGradient id="linear-gradient" x1="-327.26" y1="-10967.66" x2="-363.1" y2="-11013.54" gradientTransform="translate(374.29 -10961.49) scale(1 -1)" gradientUnits="userSpaceOnUse">
      <stop offset="0" stop-color="#bbbbd4"/>
      <stop offset=".11" stop-color="#b5b6ce"/>
      <stop offset=".36" stop-color="#9499ae"/>
      <stop offset=".73" stop-color="#687383"/>
      <stop offset=".92" stop-color="#576473"/>
      <stop offset="1" stop-color="#556271"/>
    </linearGradient>
  </defs>
  <g id="Layer_3" data-name="Layer 3">
    <g id="Layer_3-2" data-name="Layer 3">
      <g id="Bilog">
        <circle class="cls-4" cx="29.11" cy="29.11" r="29.11"/>
        <g class="cls-5">
          <path class="cls-2" d="M49.27,8.19c-2.8,1.98-7.52,4.84-12.99,7.83-9.08,4.95-16.78,8.38-17.18,7.63s6.6-5.38,15.69-10.35c5.12-2.8,9.8-5.11,12.99-6.46.51.43,1.01.88,1.49,1.35Z"/>
          <path class="cls-2" d="M51.59,10.7c-3.05,2.09-8.02,5.08-13.73,8.2-9.75,5.33-17.98,9.04-18.39,8.29s7.15-5.68,16.91-11c5.5-3,10.52-5.5,13.92-6.96.45.48.87.97,1.3,1.47Z"/>
          <path class="cls-2" d="M53.54,13.37c-3.23,2.17-8.32,5.2-14.13,8.38-10.26,5.6-18.89,9.53-19.3,8.78s7.56-5.9,17.81-11.5c5.71-3.12,10.92-5.73,14.48-7.29.4.54.78,1.08,1.14,1.63Z"/>
          <path class="cls-2" d="M31.57,7.41c-3.85,2.11-7.32,3.21-7.73,2.46s2.38-3.07,6.24-5.19,7.32-3.2,7.73-2.45-2.38,3.07-6.24,5.18Z"/>
          <path class="cls-2" d="M43.31,3.74c-1.65,1.5-5.5,4.01-10.16,6.55-6.5,3.55-12.1,5.83-12.52,5.07s4.53-4.24,11.03-7.79c4-2.2,7.67-3.89,9.98-4.7.57.27,1.12.56,1.67.87Z"/>
          <path class="cls-2" d="M46.55,5.87c-2.41,1.8-6.76,4.49-11.85,7.27-8.06,4.4-14.92,7.37-15.33,6.62s5.78-4.93,13.84-9.35c4.61-2.52,8.83-4.57,11.67-5.72.57.38,1.12.78,1.66,1.18Z"/>
          <path class="cls-2" d="M58.04,25.83c-2.85,1.95-7.28,4.62-12.35,7.39-9.08,4.96-16.78,8.38-17.18,7.63s6.6-5.38,15.69-10.35c5.42-2.97,10.36-5.38,13.53-6.68.12.67.22,1.34.3,2.01Z"/>
          <path class="cls-2" d="M58.22,29.11v.35c-2.51,1.76-6.44,4.16-10.96,6.63-8.04,4.4-14.89,7.36-15.31,6.6s5.78-4.92,13.82-9.32c5.02-2.75,9.58-4.93,12.4-6,.03.57.05,1.15.05,1.73Z"/>
          <path class="cls-2" d="M58.14,31.26c-.05.67-.12,1.34-.22,2.01-1.97,1.5-5.26,3.58-9.1,5.68-6.5,3.55-12.1,5.82-12.51,5.07s4.52-4.24,11.02-7.79c4.52-2.47,8.6-4.32,10.81-4.97Z"/>
          <path class="cls-2" d="M55.15,16.2c-3.23,2.17-8.34,5.23-14.18,8.42-10.25,5.6-18.89,9.54-19.3,8.79s7.56-5.89,17.81-11.5c5.85-3.2,11.18-5.85,14.75-7.4.33.54.64,1.11.93,1.7Z"/>
          <path class="cls-2" d="M56.47,19.22c-3.19,2.14-8.2,5.13-13.92,8.25-10.12,5.53-18.66,9.41-19.07,8.66s7.46-5.85,17.59-11.38c5.83-3.19,11.15-5.83,14.67-7.35.27.6.52,1.21.73,1.82Z"/>
          <path class="cls-2" d="M57.43,22.41c-3.07,2.07-7.86,4.93-13.32,7.92-9.75,5.33-17.97,9.04-18.39,8.29s7.15-5.68,16.91-11c5.7-3.12,10.88-5.68,14.28-7.12.2.62.38,1.26.53,1.91Z"/>
          <path class="cls-2" d="M50.37,41.79c-3.85,2.11-7.32,3.21-7.73,2.46s2.38-3.07,6.24-5.18,7.32-3.21,7.73-2.46-2.39,3.07-6.24,5.18Z"/>
        </g>
      </g>
      <g id="Layer_8" data-name="Layer 8">
        <path class="cls-3" d="M47.46,23.1c-.34,1.09-.41,2.26-.2,3.38.03.15.06.3.1.45.13.67.16,1.36.08,2.05h0c-.07.42-.15.84-.25,1.26-.25,1.04-.6,2.06-1.04,3.04-1.06.6-2.18,1.09-3.34,1.46h-.02l-.3.09h0c-3.65,1.04-7.45-1.09-8.49-4.74h0c-.1-.37-.18-.74-.22-1.12,2.62-1.94,4.66-4.54,5.92-7.54.45-1.09.8-2.22,1.03-3.38,0-.06.02-.12.04-.19.5-2.29,2.76-3.75,5.06-3.25.86.19,1.64.64,2.23,1.29h0l.12.13h0c1.3,1.46,3.16,2.29,5.12,2.29h.35c-2.86.15-5.33,2.06-6.19,4.79Z"/>
        <path class="cls-3" d="M45.5,34.63c-4.28,7.82-13.63,11.34-22,8.27,2.68-2.09,4.97-4.64,6.77-7.52,4.94,2.01,10.51,1.74,15.23-.75Z"/>
        <path class="cls-1" d="M12.01,48.34c1.67-3.74,2.54-7.79,2.53-11.89v-.78c2.12,3.32,5.26,5.86,8.96,7.23-3.38,2.64-7.3,4.5-11.49,5.44Z"/>
        <path class="cls-1" d="M46.19,33.28c-2.7,1.53-5.74,2.33-8.84,2.32-.35,0-.7,0-1.05-.03-6.79-.4-12.78-4.59-15.48-10.84-.05-.12-.1-.25-.16-.38-1.79-4.13-5.06-7.45-9.16-9.3,2.29-1.01,4.76-1.53,7.26-1.53.35,0,.7,0,1.05.03,8.21.48,15.04,6.46,16.62,14.53.02.15.05.28.08.43.8,3.71,4.46,6.07,8.18,5.26.52-.11,1.03-.29,1.51-.51v.02Z"/>
      </g>
    </g>
  </g>
</svg>