<?xml version="1.0" encoding="UTF-8"?>
<svg id="Layer_2" data-name="Layer 2" xmlns="http://www.w3.org/2000/svg" xmlns:xlink="http://www.w3.org/1999/xlink" viewBox="0 0 335.66 63.4">
  <defs>
    <style>
      .cls-1 {
        fill: #01a0e4;
      }

      .cls-2 {
        fill: #fff;
      }

      .cls-3 {
        isolation: isolate;
      }

      .cls-4 {
        fill: #45caf5;
      }

      .cls-5 {
        fill: #f5f5f5;
      }

      .cls-6 {
        fill: url(#linear-gradient);
      }

      .cls-7 {
        opacity: .8;
      }
    </style>
    <linearGradient id="linear-gradient" x1="-323.07" y1="-10829.62" x2="-362.11" y2="-10879.58" gradientTransform="translate(374.29 -10822.91) scale(1 -1)" gradientUnits="userSpaceOnUse">
      <stop offset="0" stop-color="#bbbbd4"/>
      <stop offset=".11" stop-color="#b5b6ce"/>
      <stop offset=".36" stop-color="#9499ae"/>
      <stop offset=".73" stop-color="#687383"/>
      <stop offset=".92" stop-color="#576473"/>
      <stop offset="1" stop-color="#556271"/>
    </linearGradient>
  </defs>
  <g id="Layer_1-2" data-name="Layer 1">
    <g>
      <g id="Layer_2_copy_2" data-name="Layer 2 copy 2">
        <g class="cls-3">
          <g class="cls-3">
            <path class="cls-5" d="M80.41,15.69v14.22h-2.74v-6.05h-5.85v6.05h-2.74v-14.22h2.74v5.84h5.85v-5.84h2.74Z"/>
            <path class="cls-5" d="M85.81,15.69v8.8c0,.96.24,1.7.72,2.21,1.17,1.02,2.92,1.02,4.09,0,.49-.51.73-1.25.73-2.21v-8.8h2.76v8.78c.03,1.07-.23,2.13-.75,3.07-.47.81-1.17,1.46-2.01,1.88-.87.43-1.83.64-2.81.63-.96.01-1.91-.2-2.76-.63-.83-.42-1.51-1.08-1.97-1.88-.51-.94-.76-2-.72-3.07v-8.78h2.73Z"/>
            <path class="cls-5" d="M111.62,15.69v14.22h-2.74v-9.23l-3.66,9.23h-2.07l-3.68-9.23v9.23h-2.73v-14.22h3.11l4.34,10.57,4.34-10.57h3.09Z"/>
            <path class="cls-5" d="M122.69,27.19h-5.43l-.9,2.7h-2.87l4.9-14.22h3.19l4.91,14.24h-2.89l-.9-2.71ZM121.94,24.91l-1.97-5.95-1.97,5.95h3.95Z"/>
            <path class="cls-5" d="M139.99,29.9h-2.74l-6.2-9.76v9.76h-2.74v-14.24h2.74l6.2,9.78v-9.78h2.74v14.24Z"/>
            <path class="cls-5" d="M154.38,29.9l-3-5.54h-1.29v5.54h-2.74v-14.22h5.1c.93-.03,1.86.17,2.7.58.7.35,1.28.89,1.67,1.57.38.68.57,1.44.56,2.21,0,.91-.26,1.79-.78,2.53-.56.78-1.39,1.34-2.32,1.56l3.27,5.76h-3.17ZM150.08,22.22h2.29c.74,0,1.3-.19,1.66-.56.38-.43.58-.99.55-1.56.03-.56-.16-1.11-.55-1.52-.37-.36-.92-.54-1.66-.54h-2.29v4.18Z"/>
            <path class="cls-5" d="M162.61,15.69v14.22h-2.74v-14.22h2.74Z"/>
            <path class="cls-5" d="M174.82,19.96c-.29-.57-.74-1.05-1.29-1.37-.59-.32-1.25-.48-1.92-.47-.76-.01-1.5.18-2.15.57-.64.39-1.14.96-1.46,1.63-.36.76-.55,1.59-.53,2.44-.02.86.16,1.71.54,2.49.33.68.85,1.24,1.5,1.63.68.39,1.45.59,2.23.57.93.04,1.85-.27,2.56-.87.69-.64,1.16-1.49,1.31-2.41h-4.7v-2.17h7.39v2.48c-.18.99-.58,1.93-1.17,2.75-.6.85-1.4,1.54-2.32,2.03-.98.52-2.07.78-3.18.76-1.25.02-2.49-.3-3.57-.93-1.06-.61-1.92-1.5-2.5-2.58-.61-1.15-.92-2.44-.9-3.75-.02-1.31.28-2.6.9-3.76.58-1.08,1.44-1.97,2.5-2.58,2.37-1.32,5.28-1.23,7.56.24,1.14.79,1.97,1.96,2.35,3.29h-3.15Z"/>
            <path class="cls-5" d="M191.65,15.69v14.22h-2.73v-6.05h-5.85v6.05h-2.74v-14.22h2.74v5.84h5.85v-5.84h2.73Z"/>
            <path class="cls-5" d="M203.64,15.69v2.3h-3.64v11.92h-2.74v-11.92h-3.64v-2.3h10.01Z"/>
            <path class="cls-5" d="M207.78,29.54c-.72-.31-1.35-.82-1.8-1.47-.45-.67-.69-1.46-.69-2.26h2.93c.01.52.23,1.02.6,1.39.41.36.93.54,1.47.51.54.03,1.07-.14,1.5-.48.36-.31.56-.77.55-1.25.01-.38-.12-.75-.37-1.04-.26-.28-.58-.5-.93-.64-.5-.2-1.02-.37-1.54-.52-.74-.22-1.46-.48-2.16-.8-.57-.28-1.06-.69-1.43-1.2-.43-.63-.64-1.39-.6-2.15-.02-.78.19-1.54.6-2.2.42-.63,1.01-1.13,1.7-1.44.79-.34,1.64-.51,2.5-.5,1.41,0,2.55.36,3.43,1.07.9.74,1.43,1.83,1.46,3h-3c-.02-.47-.24-.9-.6-1.2-.42-.33-.94-.5-1.48-.48-.46-.03-.92.11-1.28.4-.33.32-.51.78-.48,1.24-.01.35.12.69.36.95.26.26.56.46.9.6.36.16.86.34,1.52.54.74.22,1.47.49,2.17.81.58.29,1.07.72,1.45,1.25.43.63.64,1.38.6,2.14,0,.75-.19,1.48-.57,2.12-.39.67-.97,1.21-1.66,1.56-.81.4-1.7.6-2.6.58-.88,0-1.75-.17-2.56-.52Z"/>
            <path class="cls-5" d="M230.56,27.19h-5.44l-.9,2.7h-2.88l4.91-14.22h3.18l4.91,14.24h-2.89l-.89-2.71ZM229.82,24.91l-1.97-5.95-1.98,5.95h3.95Z"/>
            <path class="cls-5" d="M247.87,29.9h-2.74l-6.2-9.76v9.76h-2.74v-14.24h2.74l6.2,9.78v-9.78h2.74v14.24Z"/>
            <path class="cls-5" d="M259.12,16.56c1.07.57,1.95,1.43,2.52,2.5.62,1.16.92,2.45.9,3.76.03,1.3-.28,2.59-.9,3.74-.58,1.05-1.46,1.92-2.52,2.48-1.17.6-2.47.9-3.78.87h-4.77v-14.22h4.77c1.31-.03,2.61.27,3.78.87ZM258.56,26.26c.78-.81,1.17-1.96,1.17-3.44,0-1.48-.39-2.64-1.17-3.47-.78-.83-1.89-1.25-3.32-1.25h-1.93v9.39h1.93c1.44,0,2.54-.41,3.32-1.22h0Z"/>
            <path class="cls-5" d="M278.67,22.22c-.36.69-.92,1.25-1.61,1.61-.86.43-1.82.64-2.79.6h-2.31v5.47h-2.74v-14.22h5.03c.93-.03,1.86.17,2.7.57.7.34,1.28.89,1.67,1.57.73,1.37.74,3.01.04,4.4h0ZM275.83,21.6c.38-.41.58-.96.55-1.52,0-1.38-.74-2.08-2.23-2.08h-2.17v4.13h2.17c.75,0,1.31-.18,1.68-.54Z"/>
            <path class="cls-5" d="M283.86,17.99v3.58h4.58v2.25h-4.58v3.77h5.18v2.32h-7.92v-14.24h7.92v2.32h-5.18Z"/>
            <path class="cls-5" d="M294.35,29.11c-1.06-.62-1.94-1.52-2.54-2.6-.63-1.15-.96-2.44-.94-3.75-.02-1.31.3-2.6.94-3.74,1.93-3.36,6.21-4.53,9.58-2.6,0,0,0,0,0,0,1.06.62,1.93,1.52,2.52,2.6.63,1.14.95,2.43.93,3.74.02,1.31-.3,2.61-.93,3.76-.59,1.08-1.47,1.98-2.53,2.6-2.18,1.25-4.86,1.25-7.04,0h0ZM300.04,26.92c.64-.4,1.15-.98,1.46-1.66.37-.78.55-1.64.53-2.51.02-.86-.16-1.72-.53-2.5-.32-.68-.83-1.25-1.46-1.64-.66-.39-1.41-.59-2.17-.57-.77-.01-1.52.18-2.18.57-.64.39-1.15.96-1.48,1.64-.37.78-.55,1.64-.53,2.51-.02.86.16,1.72.53,2.51.32.68.83,1.26,1.48,1.66.66.39,1.41.6,2.18.58.77.01,1.52-.19,2.17-.59Z"/>
            <path class="cls-5" d="M316.3,22.22c-.37.69-.93,1.25-1.62,1.61-.86.43-1.82.64-2.79.6h-2.29v5.47h-2.74v-14.22h5.03c.93-.03,1.86.17,2.7.57.7.34,1.28.89,1.67,1.57.73,1.37.74,3.01.04,4.4h0ZM313.46,21.6c.38-.41.58-.96.55-1.52,0-1.38-.74-2.08-2.23-2.08h-2.17v4.13h2.17c.76,0,1.32-.18,1.69-.54h0Z"/>
            <path class="cls-5" d="M321.5,27.64h4.49v2.26h-7.24v-14.22h2.74v11.95Z"/>
            <path class="cls-5" d="M330.48,17.99v3.58h4.59v2.25h-4.59v3.77h5.18v2.32h-7.92v-14.24h7.92v2.32h-5.18Z"/>
          </g>
          <g class="cls-3">
            <path class="cls-5" d="M71.83,35.66v3.58h4.59v2.26h-4.59v3.77h5.18v2.32h-7.92v-14.25h7.92v2.32h-5.18Z"/>
            <path class="cls-5" d="M94.38,33.36v14.22h-2.74v-9.23l-3.66,9.25h-2.07l-3.68-9.25v9.25h-2.74v-14.23h3.11l4.34,10.57,4.34-10.57h3.09Z"/>
            <path class="cls-5" d="M106.51,39.89c-.37.69-.93,1.25-1.62,1.61-.86.43-1.82.64-2.79.6h-2.29v5.46h-2.74v-14.2h5.03c.93-.03,1.86.17,2.7.57.7.34,1.29.89,1.67,1.57.73,1.37.74,3.01.04,4.4h0ZM103.66,39.27c.38-.41.58-.96.55-1.52,0-1.38-.74-2.08-2.23-2.08h-2.17v4.13h2.17c.76,0,1.32-.18,1.68-.54Z"/>
            <path class="cls-5" d="M111.78,46.78c-1.06-.62-1.94-1.52-2.54-2.6-1.25-2.34-1.25-5.15,0-7.49,1.93-3.36,6.21-4.53,9.58-2.6,0,0,0,0,0,0,1.06.62,1.93,1.52,2.52,2.6,1.24,2.34,1.24,5.14,0,7.49-.59,1.08-1.47,1.98-2.53,2.6-2.18,1.25-4.86,1.25-7.04,0h0ZM117.47,44.59c.64-.4,1.15-.98,1.47-1.66.37-.78.55-1.64.53-2.51.02-.86-.16-1.72-.53-2.5-.32-.68-.83-1.25-1.47-1.64-.66-.39-1.41-.59-2.17-.57-.77-.01-1.52.18-2.18.57-.64.39-1.15.96-1.48,1.64-.36.78-.54,1.64-.52,2.51-.02.86.16,1.72.53,2.51.32.68.83,1.26,1.48,1.66.66.39,1.41.6,2.18.58.76,0,1.51-.2,2.16-.59h0Z"/>
            <path class="cls-5" d="M142.56,33.36l-3.81,14.22h-3.23l-2.56-10.13-2.68,10.12-3.2.02-3.66-14.23h2.94l2.4,11.04,2.78-11.04h3.05l2.62,10.97,2.42-10.98h2.95Z"/>
            <path class="cls-5" d="M147.07,35.66v3.58h4.59v2.26h-4.59v3.77h5.18v2.32h-7.92v-14.25h7.92v2.32h-5.18Z"/>
            <path class="cls-5" d="M161.78,47.57l-3.03-5.54h-1.29v5.54h-2.73v-14.22h5.12c.93-.03,1.86.17,2.7.58.7.35,1.28.89,1.67,1.57.38.68.57,1.44.56,2.21,0,.91-.26,1.79-.78,2.53-.56.78-1.39,1.34-2.33,1.56l3.26,5.76h-3.16ZM157.48,39.89h2.29c.74,0,1.3-.19,1.66-.56.38-.42.58-.99.55-1.56.03-.56-.16-1.11-.55-1.52-.37-.36-.92-.54-1.66-.54h-2.29v4.18Z"/>
            <path class="cls-5" d="M182.15,33.36v14.22h-2.73v-9.23l-3.66,9.25h-2.07l-3.68-9.25v9.25h-2.74v-14.23h3.11l4.34,10.57,4.34-10.57h3.09Z"/>
            <path class="cls-5" d="M187.59,35.66v3.58h4.59v2.26h-4.59v3.77h5.18v2.32h-7.92v-14.25h7.92v2.32h-5.18Z"/>
            <path class="cls-5" d="M206.92,47.57h-2.74l-6.2-9.76v9.76h-2.73v-14.24h2.73l6.2,9.78v-9.78h2.74v14.24Z"/>
            <path class="cls-5" d="M218.91,33.36v2.3h-3.64v11.92h-2.74v-11.92h-3.64v-2.3h10.01Z"/>
            <path class="cls-5" d="M225.8,36.69c.58-1.07,1.43-1.97,2.48-2.58,1.07-.62,2.29-.94,3.53-.93,1.43-.03,2.84.4,4.01,1.22,1.15.83,2,2.02,2.4,3.38h-3.14c-.27-.63-.73-1.17-1.32-1.53-.6-.35-1.28-.52-1.96-.51-1.52-.03-2.91.84-3.55,2.22-.69,1.58-.69,3.38,0,4.96.31.68.82,1.25,1.45,1.65.64.39,1.37.59,2.12.58.69.01,1.37-.17,1.96-.52.59-.37,1.05-.9,1.32-1.54h3.15c-.4,1.37-1.24,2.56-2.4,3.39-2.26,1.51-5.18,1.62-7.55.28-1.05-.62-1.91-1.51-2.48-2.58-1.21-2.36-1.21-5.15,0-7.51h-.01Z"/>
            <path class="cls-5" d="M243.31,35.66v3.58h4.59v2.26h-4.59v3.77h5.18v2.32h-7.92v-14.25h7.92v2.32h-5.18Z"/>
            <path class="cls-5" d="M262.65,47.57h-2.74l-6.21-9.76v9.76h-2.73v-14.24h2.73l6.2,9.78v-9.78h2.74v14.24Z"/>
            <path class="cls-5" d="M274.64,33.36v2.3h-3.64v11.92h-2.74v-11.92h-3.64v-2.3h10.01Z"/>
            <path class="cls-5" d="M279.37,35.66v3.58h4.59v2.26h-4.59v3.77h5.18v2.32h-7.92v-14.25h7.92v2.32h-5.18Z"/>
            <path class="cls-5" d="M294.07,47.57l-3.01-5.54h-1.29v5.54h-2.74v-14.22h5.12c.93-.03,1.86.17,2.7.58.7.35,1.28.89,1.67,1.57.38.68.57,1.44.56,2.21,0,.91-.26,1.79-.78,2.53-.56.78-1.39,1.34-2.33,1.56l3.26,5.76h-3.16ZM289.77,39.89h2.29c.74,0,1.3-.19,1.66-.56.38-.42.58-.99.55-1.56.03-.56-.16-1.11-.55-1.52-.37-.36-.92-.54-1.66-.54h-2.29v4.18Z"/>
          </g>
        </g>
      </g>
      <g id="Layer_3" data-name="Layer 3">
        <g id="Bilog">
          <circle class="cls-6" cx="31.7" cy="31.7" r="31.7"/>
          <g class="cls-7">
            <path class="cls-2" d="M53.65,8.92c-3.05,2.16-8.19,5.27-14.14,8.52-9.88,5.39-18.27,9.12-18.71,8.31s7.19-5.86,17.09-11.27c5.58-3.05,10.67-5.56,14.14-7.03.56.47,1.1.96,1.62,1.47Z"/>
            <path class="cls-2" d="M56.18,11.65c-3.32,2.27-8.73,5.53-14.96,8.93-10.62,5.8-19.58,9.85-20.03,9.03s7.79-6.19,18.41-11.98c5.99-3.27,11.45-5.99,15.16-7.58.49.52.95,1.06,1.42,1.6Z"/>
            <path class="cls-2" d="M58.31,14.56c-3.52,2.36-9.05,5.66-15.39,9.13-11.17,6.1-20.57,10.38-21.01,9.56s8.23-6.43,19.39-12.53c6.22-3.4,11.89-6.24,15.77-7.94.44.58.84,1.17,1.24,1.78Z"/>
            <path class="cls-2" d="M34.38,8.07c-4.19,2.3-7.97,3.49-8.42,2.68s2.6-3.35,6.8-5.66,7.98-3.48,8.42-2.67-2.59,3.35-6.8,5.64Z"/>
            <path class="cls-2" d="M47.16,4.08c-1.8,1.63-5.99,4.36-11.07,7.13-7.08,3.87-13.18,6.34-13.63,5.52s4.94-4.62,12.01-8.49c4.36-2.4,8.35-4.24,10.87-5.12.62.3,1.22.61,1.82.95Z"/>
            <path class="cls-2" d="M50.69,6.39c-2.62,1.96-7.36,4.89-12.9,7.92-8.77,4.79-16.25,8.02-16.7,7.21s6.29-5.37,15.08-10.18c5.02-2.74,9.61-4.97,12.71-6.22.62.42,1.22.85,1.81,1.28Z"/>
            <path class="cls-2" d="M63.2,28.12c-3.1,2.12-7.93,5.03-13.45,8.05-9.88,5.41-18.27,9.12-18.71,8.31s7.19-5.86,17.09-11.27c5.91-3.23,11.28-5.86,14.74-7.28.13.73.24,1.46.33,2.19Z"/>
            <path class="cls-2" d="M63.4,31.7v.39c-2.73,1.92-7.01,4.53-11.93,7.22-8.76,4.79-16.22,8.01-16.67,7.19s6.29-5.36,15.05-10.15c5.47-3,10.44-5.37,13.5-6.53.04.62.05,1.25.05,1.88Z"/>
            <path class="cls-2" d="M63.31,34.04c-.05.73-.13,1.46-.24,2.18-2.14,1.64-5.73,3.89-9.91,6.19-7.08,3.87-13.18,6.34-13.62,5.52s4.93-4.62,12.01-8.49c4.92-2.69,9.37-4.7,11.77-5.41Z"/>
            <path class="cls-2" d="M60.06,17.64c-3.52,2.36-9.08,5.69-15.45,9.17-11.16,6.1-20.57,10.38-21.01,9.57s8.23-6.42,19.39-12.53c6.37-3.48,12.17-6.37,16.06-8.06.36.59.69,1.21,1.01,1.85Z"/>
            <path class="cls-2" d="M61.49,20.93c-3.48,2.33-8.93,5.59-15.16,8.99-11.02,6.03-20.32,10.25-20.77,9.43s8.13-6.37,19.15-12.39c6.35-3.47,12.14-6.35,15.98-8.01.3.65.56,1.32.8,1.98Z"/>
            <path class="cls-2" d="M62.54,24.4c-3.35,2.26-8.55,5.37-14.51,8.63-10.62,5.8-19.57,9.85-20.03,9.03s7.79-6.19,18.41-11.98c6.2-3.39,11.85-6.19,15.55-7.75.22.67.41,1.37.58,2.08Z"/>
            <path class="cls-2" d="M54.85,45.51c-4.19,2.3-7.97,3.5-8.42,2.68s2.6-3.34,6.8-5.64,7.97-3.5,8.42-2.68-2.6,3.34-6.8,5.64Z"/>
          </g>
        </g>
        <g id="Layer_8" data-name="Layer 8">
          <path class="cls-4" d="M51.68,25.16c-.38,1.19-.45,2.46-.21,3.68.03.16.07.33.11.49.14.73.17,1.49.09,2.23h0c-.07.46-.17.92-.28,1.37-.28,1.14-.65,2.25-1.13,3.32-1.15.65-2.37,1.18-3.63,1.59h-.02l-.32.1h0c-3.98,1.13-8.12-1.18-9.25-5.16h0c-.11-.4-.19-.81-.24-1.22,2.85-2.11,5.08-4.95,6.45-8.22.49-1.19.87-2.42,1.12-3.68,0-.07.03-.13.04-.21.54-2.5,3.01-4.08,5.51-3.54.94.2,1.78.69,2.43,1.4h0l.13.14h0c1.42,1.59,3.45,2.49,5.57,2.49h.38c-3.11.16-5.8,2.24-6.74,5.21Z"/>
          <path class="cls-4" d="M49.55,37.71c-4.66,8.52-14.85,12.35-23.96,9.01,2.92-2.28,5.41-5.05,7.38-8.19,5.38,2.19,11.45,1.89,16.58-.82Z"/>
          <path class="cls-1" d="M13.08,52.65c1.82-4.07,2.76-8.48,2.76-12.94v-.85c2.31,3.62,5.73,6.38,9.76,7.87-3.68,2.88-7.95,4.9-12.51,5.92Z"/>
          <path class="cls-1" d="M50.3,36.24c-2.94,1.66-6.26,2.53-9.63,2.53-.38,0-.76,0-1.14-.03-7.4-.43-13.92-5-16.85-11.8-.05-.13-.11-.27-.17-.41-1.95-4.5-5.51-8.11-9.98-10.13,2.49-1.1,5.18-1.67,7.91-1.66.38,0,.76,0,1.14.03,8.94.52,16.38,7.03,18.09,15.82.02.16.05.3.09.47.88,4.04,4.86,6.61,8.9,5.73.57-.12,1.12-.31,1.64-.56v.02Z"/>
        </g>
      </g>
    </g>
  </g>
</svg>