<?xml version="1.0" encoding="UTF-8"?>
<svg id="Layer_2" data-name="Layer 2" xmlns="http://www.w3.org/2000/svg" xmlns:xlink="http://www.w3.org/1999/xlink" viewBox="0 0 132.98 132.94">
  <defs>
    <style>
      .cls-1 {
        font-size: 6.55px;
      }

      .cls-1, .cls-2, .cls-3, .cls-4, .cls-5, .cls-6, .cls-7, .cls-8, .cls-9 {
        fill: #fff;
      }

      .cls-1, .cls-2, .cls-4, .cls-10, .cls-5, .cls-6, .cls-7, .cls-8, .cls-9 {
        isolation: isolate;
      }

      .cls-1, .cls-2, .cls-4, .cls-5, .cls-6, .cls-7, .cls-8, .cls-9 {
        font-family: Poppins-Bold, Poppins;
        font-weight: 700;
      }

      .cls-11 {
        fill: #01a0e4;
      }

      .cls-2 {
        font-size: 6.58px;
      }

      .cls-4 {
        font-size: 6.58px;
      }

      .cls-12 {
        fill: #45caf5;
      }

      .cls-5 {
        font-size: 6.56px;
      }

      .cls-6 {
        font-size: 6.6px;
      }

      .cls-7 {
        font-size: 6.59px;
      }

      .cls-8 {
        font-size: 6.6px;
      }

      .cls-9 {
        font-size: 6.59px;
      }

      .cls-13 {
        fill: url(#linear-gradient);
      }

      .cls-14 {
        opacity: .8;
      }
    </style>
    <linearGradient id="linear-gradient" x1="-136.11" y1="-1199.77" x2="-216.46" y2="-1096.93" gradientTransform="translate(244 1213.6)" gradientUnits="userSpaceOnUse">
      <stop offset="0" stop-color="#bbbbd4"/>
      <stop offset=".1" stop-color="#b5b6ce"/>
      <stop offset=".4" stop-color="#9499ae"/>
      <stop offset=".7" stop-color="#687383"/>
      <stop offset=".9" stop-color="#576473"/>
      <stop offset="1" stop-color="#556271"/>
    </linearGradient>
  </defs>
  <g id="Layer_2-2" data-name="Layer 2">
    <g id="Layer_1-2" data-name="Layer 1">
      <g>
        <g id="Bilog">
          <circle class="cls-13" cx="67.72" cy="65.25" r="65.25"/>
          <g class="cls-14">
            <path class="cls-3" d="M112.93,18.36c-6.28,4.43-16.87,10.85-29.11,17.56-20.35,11.12-37.6,18.78-38.52,17.09s14.84-12.07,35.18-23.19c11.48-6.28,21.99-11.46,29.11-14.47,1.15.97,2.26,1.96,3.34,3.01h0Z"/>
            <path class="cls-3" d="M118.12,23.98c-6.83,4.68-17.96,11.39-30.78,18.38-21.85,11.95-40.32,20.26-41.24,18.58s16.06-12.73,37.9-24.68c12.33-6.74,23.57-12.33,31.2-15.61,1.01,1.08,1.99,2.17,2.92,3.32Z"/>
            <path class="cls-3" d="M122.51,29.97c-7.25,4.87-18.64,11.65-31.68,18.79-22.97,12.55-42.33,21.37-43.26,19.69s16.95-13.24,39.92-25.79c12.8-7,24.47-12.83,32.46-16.34.88,1.19,1.74,2.41,2.55,3.66h0Z"/>
            <path class="cls-3" d="M73.24,16.6c-8.65,4.73-16.41,7.19-17.33,5.51s5.34-6.89,13.99-11.61,16.41-7.19,17.33-5.51-5.34,6.89-13.99,11.61Z"/>
            <path class="cls-3" d="M99.56,8.39c-3.73,3.35-12.35,8.97-22.79,14.68-14.57,7.96-27.13,13.06-28.05,11.37s10.14-9.51,24.71-17.47c8.97-4.91,17.18-8.72,22.38-10.55,1.26.62,2.51,1.26,3.73,1.95h.01Z"/>
            <path class="cls-3" d="M106.83,13.14c-5.4,4.02-15.14,10.07-26.56,16.29-18.06,9.87-33.46,16.52-34.37,14.84s12.97-11.05,31.03-20.94c10.33-5.65,19.79-10.24,26.17-12.82,1.28.83,2.51,1.7,3.73,2.62h0Z"/>
            <path class="cls-3" d="M132.56,57.89c-6.39,4.36-16.32,10.35-27.7,16.56-20.35,11.12-37.6,18.78-38.52,17.09s14.84-12.07,35.18-23.19c12.17-6.65,23.22-12.06,30.35-14.98.28,1.49.5,3,.67,4.52h.01Z"/>
            <path class="cls-3" d="M132.98,65.25v.8c-5.62,3.95-14.44,9.34-24.57,14.88-18.03,9.86-33.39,16.48-34.31,14.79s12.94-11.04,30.98-20.89c11.26-6.16,21.48-11.05,27.79-13.45.07,1.29.11,2.58.11,3.88h0Z"/>
            <path class="cls-3" d="M132.8,70.06c-.11,1.51-.28,3.01-.49,4.5-4.42,3.37-11.79,8.04-20.4,12.73-14.57,7.96-27.12,13.06-28.05,11.37s10.14-9.51,24.71-17.47c10.12-5.54,19.28-9.69,24.23-11.13h0Z"/>
            <path class="cls-3" d="M126.11,36.28c-7.25,4.87-18.69,11.7-31.8,18.86-22.97,12.56-42.33,21.38-43.26,19.7s16.95-13.22,39.92-25.79c13.11-7.17,25.04-13.13,33.05-16.59.73,1.25,1.43,2.51,2.08,3.81h.01Z"/>
            <path class="cls-3" d="M129.05,43.08c-7.17,4.8-18.38,11.5-31.2,18.51-22.69,12.41-41.84,21.1-42.76,19.42s16.73-13.11,39.42-25.52c13.08-7.15,24.99-13.07,32.9-16.48.59,1.33,1.14,2.69,1.64,4.07Z"/>
            <path class="cls-3" d="M131.21,50.22c-6.89,4.64-17.61,11.06-29.87,17.77-21.85,11.95-40.32,20.26-41.24,18.58s16.04-12.73,37.9-24.68c12.77-6.98,24.39-12.73,32.01-15.96.45,1.42.84,2.85,1.19,4.29h0Z"/>
            <path class="cls-3" d="M115.38,93.67c-8.65,4.73-16.41,7.19-17.33,5.51s5.34-6.89,13.99-11.61,16.41-7.19,17.33-5.51-5.34,6.89-13.99,11.61Z"/>
          </g>
        </g>
        <g id="Layer_8" data-name="Layer 8">
          <path class="cls-12" d="M108.86,51.76c-.77,2.45-.93,5.06-.43,7.59.07.34.14.67.22,1,.29,1.51.35,3.06.18,4.6h0c-.15.95-.35,1.89-.57,2.82-.56,2.36-1.35,4.66-2.33,6.86-2.37,1.35-4.88,2.44-7.49,3.27h-.04c-.22.08-.45.15-.66.22h0c-8.2,2.31-16.73-2.44-19.04-10.64-.24-.83-.39-1.65-.49-2.51,5.88-4.35,10.46-10.19,13.28-16.94,1.02-2.44,1.79-4.98,2.31-7.57.03-.14.06-.28.08-.43,1.12-5.13,6.18-8.4,11.33-7.28,1.94.42,3.69,1.43,5.01,2.89h.01c.08.11.17.21.25.31h0c2.92,3.27,7.1,5.13,11.47,5.13.27,0,.52,0,.79-.01-6.42.34-11.95,4.61-13.9,10.74v-.03Z"/>
          <path class="cls-12" d="M104.49,77.6c-6.84,12.52-20.14,21.02-35.42,21.02-4.75,0-9.48-.83-13.94-2.48,6-4.68,11.15-10.39,15.19-16.86,11.08,4.52,23.59,3.9,34.16-1.7h.01Z"/>
          <path class="cls-11" d="M29.39,108.37c3.74-8.39,5.68-17.46,5.67-26.64,0-.59,0-1.16-.03-1.75,4.75,7.43,11.79,13.11,20.08,16.17-7.57,5.93-16.35,10.1-25.73,12.21h.01Z"/>
          <path class="cls-11" d="M106.02,74.57c-6.04,3.42-12.87,5.22-19.83,5.2-.79,0-1.57-.03-2.34-.07-15.58-.9-28.8-10.63-34.69-24.29-.11-.28-.24-.56-.35-.84-4.01-9.27-11.33-16.69-20.54-20.84,5.13-2.27,10.67-3.44,16.28-3.42.79,0,1.57.03,2.34.07,18.59,1.07,33.81,14.71,37.26,32.56.04.32.11.65.17.97,1.79,8.32,10,13.6,18.33,11.81,1.16-.25,2.3-.65,3.38-1.15h0Z"/>
        </g>
        <g id="HRPEC">
          <g class="cls-10">
            <text class="cls-4" transform="translate(16.69 27.12) rotate(124.8)"><tspan x="0" y="0">H</tspan></text>
          </g>
          <g class="cls-10">
            <text class="cls-4" transform="translate(13.83 31.26) rotate(120.7)"><tspan x="0" y="0">U</tspan></text>
          </g>
          <g class="cls-10">
            <text class="cls-4" transform="translate(11.35 35.46) rotate(115.3)"><tspan x="0" y="0">M</tspan></text>
          </g>
          <g class="cls-10">
            <text class="cls-4" transform="translate(8.68 41.17) rotate(109.9)"><tspan x="0" y="0">A</tspan></text>
          </g>
          <g class="cls-10">
            <text class="cls-4" transform="translate(6.96 45.94) rotate(105.4)"><tspan x="0" y="0">N</tspan></text>
          </g>
          <g class="cls-10">
            <text class="cls-6" transform="translate(5.29 52.33) rotate(99.7)"><tspan x="0" y="0">R</tspan></text>
          </g>
          <g class="cls-10">
            <text class="cls-1" transform="translate(4.57 56.71) rotate(96.9)"><tspan x="0" y="0">I</tspan></text>
          </g>
          <g class="cls-10">
            <text class="cls-4" transform="translate(4.29 58.8) rotate(93.5)"><tspan x="0" y="0">G</tspan></text>
          </g>
          <g class="cls-10">
            <text class="cls-4" transform="translate(3.98 64.03) rotate(88.8)"><tspan x="0" y="0">H</tspan></text>
          </g>
          <g class="cls-10">
            <text class="cls-2" transform="translate(4.11 69.03) rotate(84.6)"><tspan x="0" y="0">T</tspan></text>
          </g>
          <g class="cls-10">
            <text class="cls-7" transform="translate(4.5 73.09) rotate(80.8)"><tspan x="0" y="0">S</tspan></text>
          </g>
          <g class="cls-10">
            <text class="cls-4" transform="translate(5.47 78.71) rotate(75.4)"><tspan x="0" y="0">A</tspan></text>
          </g>
          <g class="cls-10">
            <text class="cls-4" transform="translate(6.75 83.62) rotate(70.8)"><tspan x="0" y="0">N</tspan></text>
          </g>
          <g class="cls-10">
            <text class="cls-2" transform="translate(8.47 88.5) rotate(66.3)"><tspan x="0" y="0">D</tspan></text>
          </g>
          <g class="cls-10">
            <text class="cls-5" transform="translate(11.15 94.36) rotate(60.6)"><tspan x="0" y="0">P</tspan></text>
          </g>
          <g class="cls-10">
            <text class="cls-4" transform="translate(13.24 98.08) rotate(57.3)"><tspan x="0" y="0">E</tspan></text>
          </g>
          <g class="cls-10">
            <text class="cls-4" transform="translate(15.26 101.26) rotate(53.1)"><tspan x="0" y="0">O</tspan></text>
          </g>
          <g class="cls-10">
            <text class="cls-5" transform="translate(18.48 105.55) rotate(48.7)"><tspan x="0" y="0">P</tspan></text>
          </g>
          <g class="cls-10">
            <text class="cls-1" transform="translate(21.3 108.76) rotate(45.4)"><tspan x="0" y="0">L</tspan></text>
          </g>
          <g class="cls-10">
            <text class="cls-4" transform="translate(23.6 111.12) rotate(42.5)"><tspan x="0" y="0">E</tspan></text>
          </g>
          <g class="cls-10">
            <text class="cls-5" transform="translate(27.46 114.57) rotate(37.7)"><tspan x="0" y="0">E</tspan></text>
          </g>
          <g class="cls-10">
            <text class="cls-8" transform="translate(30.43 116.91) rotate(33.2)"><tspan x="0" y="0">M</tspan></text>
          </g>
          <g class="cls-10">
            <text class="cls-4" transform="translate(35.69 120.32) rotate(28.5)"><tspan x="0" y="0">P</tspan></text>
          </g>
          <g class="cls-10">
            <text class="cls-5" transform="translate(39.49 122.39) rotate(24.3)"><tspan x="0" y="0">O</tspan></text>
          </g>
          <g class="cls-10">
            <text class="cls-5" transform="translate(44.45 124.65) rotate(18.1)"><tspan x="0" y="0">W</tspan></text>
          </g>
          <g class="cls-10">
            <text class="cls-4" transform="translate(51.28 126.82) rotate(13.4)"><tspan x="0" y="0">E</tspan></text>
          </g>
          <g class="cls-10">
            <text class="cls-8" transform="translate(54.9 127.69) rotate(9.7)"><tspan x="0" y="0">R</tspan></text>
          </g>
          <g class="cls-10">
            <text class="cls-9" transform="translate(59.38 128.48) rotate(4.6)"><tspan x="0" y="0">M</tspan></text>
          </g>
          <g class="cls-10">
            <text class="cls-4" transform="translate(65.62 128.94) rotate(.2)"><tspan x="0" y="0">E</tspan></text>
          </g>
          <g class="cls-10">
            <text class="cls-4" transform="translate(69.37 128.97) rotate(-3.9)"><tspan x="0" y="0">N</tspan></text>
          </g>
          <g class="cls-10">
            <text class="cls-4" transform="translate(74.51 128.6) rotate(-8)"><tspan x="0" y="0">T</tspan></text>
          </g>
          <g class="cls-10">
            <text class="cls-5" transform="translate(80 127.76) rotate(-13.9)"><tspan x="0" y="0">C</tspan></text>
          </g>
          <g class="cls-10">
            <text class="cls-4" transform="translate(85.05 126.5) rotate(-17.6)"><tspan x="0" y="0">E</tspan></text>
          </g>
          <g class="cls-10">
            <text class="cls-4" transform="translate(88.64 125.38) rotate(-21.6)"><tspan x="0" y="0">N</tspan></text>
          </g>
          <g class="cls-10">
            <text class="cls-4" transform="translate(93.41 123.47) rotate(-25.7)"><tspan x="0" y="0">T</tspan></text>
          </g>
          <g class="cls-10">
            <text class="cls-5" transform="translate(97.05 121.7) rotate(-29.4)"><tspan x="0" y="0">E</tspan></text>
          </g>
          <g class="cls-10">
            <text class="cls-4" transform="translate(100.32 119.88) rotate(-32.8)"><tspan x="0" y="0">R</tspan></text>
          </g>
        </g>
      </g>
    </g>
  </g>
</svg>