<?xml version="1.0" encoding="UTF-8"?>
<svg id="Layer_1" data-name="Layer 1" xmlns="http://www.w3.org/2000/svg" xmlns:xlink="http://www.w3.org/1999/xlink" viewBox="0 0 29.69 29.69">
  <defs>
    <style>
      .cls-1 {
        fill: #01a0e4;
      }

      .cls-2 {
        fill: #fff;
      }

      .cls-3 {
        fill: #45caf5;
      }

      .cls-4 {
        fill: url(#linear-gradient);
      }

      .cls-5 {
        opacity: .8;
      }
    </style>
    <linearGradient id="linear-gradient" x1="314.05" y1="-514.45" x2="295.76" y2="-491.06" gradientTransform="translate(-290.06 517.6)" gradientUnits="userSpaceOnUse">
      <stop offset="0" stop-color="#bbbbd4"/>
      <stop offset=".1" stop-color="#b5b6ce"/>
      <stop offset=".4" stop-color="#9499ae"/>
      <stop offset=".7" stop-color="#687383"/>
      <stop offset=".9" stop-color="#576473"/>
      <stop offset="1" stop-color="#556271"/>
    </linearGradient>
  </defs>
  <g id="Layer_1-2" data-name="Layer 1">
    <g>
      <g id="Bilog">
        <circle class="cls-4" cx="14.85" cy="14.85" r="14.85"/>
        <g class="cls-5">
          <path class="cls-2" d="M25.13,4.18c-1.43,1.01-3.84,2.47-6.62,3.99-4.63,2.53-8.55,4.27-8.76,3.89s3.37-2.75,8-5.28c2.61-1.43,5-2.61,6.62-3.29.26.22.51.45.76.69h0Z"/>
          <path class="cls-2" d="M26.31,5.46c-1.55,1.07-4.09,2.59-7,4.18-4.97,2.72-9.17,4.61-9.38,4.23s3.65-2.9,8.62-5.61c2.8-1.53,5.36-2.8,7.1-3.55.23.25.45.49.66.76Z"/>
          <path class="cls-2" d="M27.3,6.82c-1.65,1.11-4.24,2.65-7.21,4.27-5.22,2.85-9.63,4.86-9.84,4.48s3.86-3.01,9.08-5.87c2.91-1.59,5.57-2.92,7.38-3.72.2.27.4.55.58.83h0Z"/>
          <path class="cls-2" d="M16.1,3.78c-1.97,1.07-3.73,1.64-3.94,1.25s1.22-1.57,3.18-2.64,3.73-1.64,3.94-1.25-1.22,1.57-3.18,2.64Z"/>
          <path class="cls-2" d="M22.09,1.91c-.85.76-2.81,2.04-5.18,3.34-3.31,1.81-6.17,2.97-6.38,2.59s2.31-2.16,5.62-3.97c2.04-1.12,3.91-1.98,5.09-2.4.29.14.57.29.85.44h0Z"/>
          <path class="cls-2" d="M23.74,2.99c-1.23.92-3.44,2.29-6.04,3.71-4.11,2.25-7.61,3.76-7.82,3.37s2.95-2.51,7.06-4.76c2.35-1.29,4.5-2.33,5.95-2.92.29.19.57.39.85.6h0Z"/>
          <path class="cls-2" d="M29.59,13.17c-1.45.99-3.71,2.35-6.3,3.77-4.63,2.53-8.55,4.27-8.76,3.89s3.37-2.75,8-5.28c2.77-1.51,5.28-2.74,6.9-3.41.06.34.11.68.15,1.03h0Z"/>
          <path class="cls-2" d="M29.69,14.85v.18c-1.28.9-3.29,2.12-5.59,3.38-4.1,2.24-7.59,3.75-7.81,3.37s2.94-2.51,7.05-4.75c2.56-1.4,4.89-2.51,6.32-3.06.02.29.03.59.03.88h0Z"/>
          <path class="cls-2" d="M29.65,15.94c-.03.34-.06.69-.11,1.02-1,.77-2.68,1.83-4.64,2.9-3.31,1.81-6.17,2.97-6.38,2.59s2.31-2.16,5.62-3.97c2.3-1.26,4.39-2.2,5.51-2.53h0Z"/>
          <path class="cls-2" d="M28.13,8.26c-1.65,1.11-4.25,2.66-7.23,4.29-5.22,2.86-9.63,4.86-9.84,4.48s3.86-3.01,9.08-5.87c2.98-1.63,5.7-2.99,7.52-3.77.17.28.33.57.47.87h0Z"/>
          <path class="cls-2" d="M28.79,9.8c-1.63,1.09-4.18,2.62-7.1,4.21-5.16,2.82-9.52,4.8-9.73,4.42s3.81-2.98,8.97-5.81c2.98-1.63,5.68-2.97,7.48-3.75.13.3.26.61.37.93Z"/>
          <path class="cls-2" d="M29.29,11.43c-1.57,1.06-4.01,2.52-6.79,4.04-4.97,2.72-9.17,4.61-9.38,4.23s3.65-2.9,8.62-5.61c2.91-1.59,5.55-2.9,7.28-3.63.1.32.19.65.27.98h0Z"/>
          <path class="cls-2" d="M25.69,21.31c-1.97,1.07-3.73,1.64-3.94,1.25s1.22-1.57,3.18-2.64,3.73-1.64,3.94-1.25-1.22,1.57-3.18,2.64Z"/>
        </g>
      </g>
      <g id="Layer_8" data-name="Layer 8">
        <path class="cls-3" d="M24.2,11.78c-.18.56-.21,1.15-.1,1.73.02.08.03.15.05.23.07.34.08.7.04,1.05h0c-.04.22-.08.43-.13.64-.13.54-.31,1.06-.53,1.56-.54.31-1.11.56-1.7.74h0c-.05.02-.1.04-.15.05h0c-1.87.53-3.81-.56-4.33-2.42-.05-.19-.09-.38-.11-.57,1.34-.99,2.38-2.32,3.02-3.85.23-.56.41-1.13.53-1.72,0-.03.01-.06.02-.1.26-1.17,1.41-1.91,2.58-1.66.44.1.84.33,1.14.66h0s.04.05.06.07h0c.66.74,1.61,1.17,2.61,1.17.06,0,.12,0,.18,0-1.46.08-2.72,1.05-3.16,2.44h0Z"/>
        <path class="cls-3" d="M23.21,17.66c-1.56,2.85-4.58,4.78-8.06,4.78-1.08,0-2.16-.19-3.17-.56,1.37-1.07,2.54-2.36,3.45-3.83,2.52,1.03,5.37.89,7.77-.39h0Z"/>
        <path class="cls-1" d="M6.12,24.65c.85-1.91,1.29-3.97,1.29-6.06,0-.13,0-.26,0-.4,1.08,1.69,2.68,2.98,4.57,3.68-1.72,1.35-3.72,2.3-5.85,2.78h0Z"/>
        <path class="cls-1" d="M23.55,16.97c-1.37.78-2.93,1.19-4.51,1.18-.18,0-.36,0-.53-.02-3.54-.2-6.55-2.42-7.89-5.52-.03-.06-.05-.13-.08-.19-.91-2.11-2.58-3.8-4.67-4.74,1.17-.52,2.43-.78,3.7-.78.18,0,.36,0,.53.02,4.23.24,7.69,3.35,8.48,7.41,0,.07.03.15.04.22.41,1.89,2.27,3.09,4.17,2.69.26-.06.52-.15.77-.26h0Z"/>
      </g>
    </g>
  </g>
</svg>